<?xml version="1.0" encoding="utf-8"?><svg viewBox="0 0 34 38" xmlns="http://www.w3.org/2000/svg" xmlns:xlink="http://www.w3.org/1999/xlink"><style>:root>svg{display:none}:root>svg:target{display:block}</style><svg fill="none" viewBox="0 0 10 7" id="dropdown-icon" xmlns="http://www.w3.org/2000/svg"><path d="m1 1.528 4 4 4-4" stroke="#fff" stroke-width="1.4" stroke-linecap="round"/></svg><svg fill="none" viewBox="0 0 21 21" id="facebook" xmlns="http://www.w3.org/2000/svg"><path fill-rule="evenodd" clip-rule="evenodd" d="M11.502 19.184h-3.99v-9H5.518V7.082h1.994V5.22c0-2.53 1.127-4.036 4.324-4.036h2.662v3.102h-1.663c-1.246 0-1.328.434-1.328 1.244l-.005 1.552h3.016l-.353 3.102h-2.663v9Z" fill="#fff"/></svg><svg fill="#010101" viewBox="0 0 16 16" id="point" xmlns="http://www.w3.org/2000/svg"><circle cx="8" cy="7.87" r="7" transform="rotate(90 8 7.87)" stroke="#fff" stroke-width="1.5"/></svg><svg fill="none" viewBox="0 0 16 16" id="point-active" xmlns="http://www.w3.org/2000/svg"><circle cx="8" cy="8" r="7" transform="rotate(90 8 8)" fill="#fff" stroke="#fff" stroke-width="1.5"/></svg><svg fill="none" viewBox="0 0 23 11" id="scroll-down" xmlns="http://www.w3.org/2000/svg"><path d="M21.805 1.788h-20l9.888 8 10.112-8Z" stroke="#fff" stroke-width="2" stroke-linecap="round" stroke-linejoin="round"/></svg><svg fill="none" viewBox="0 0 30 31" id="steam-icon" xmlns="http://www.w3.org/2000/svg"><path fill-rule="evenodd" clip-rule="evenodd" d="M15 30.528c8.284 0 15-6.716 15-15 0-8.285-6.716-15-15-15-8.284 0-15 6.715-15 15 0 1.528.228 3.002.653 4.391.109.02.284.064.539.14l-.399-6.273c0-.115.194-.17.372-.221.097-.028.19-.055.243-.089.145-.091 3.124.997 3.283 1.069l3.81 1.723a4.895 4.895 0 0 1 3.317-.703l3.463-4.221c.043-3.37 2.792-6.084 6.172-6.09a6.164 6.164 0 0 1 6.076 5.575 6.168 6.168 0 0 1-5.564 6.715l-5.768 4.115a5.114 5.114 0 0 1-3.39 3.87 5.115 5.115 0 0 1-6.486-3.205l-2.006-.665c-.149-.047-2.879-1.183-3.618-1.6C2.617 26.13 8.295 30.528 15 30.528Zm9.54-19.112a3.084 3.084 0 0 1-3.086 3.08 3.084 3.084 0 0 1-3.087-3.08 3.083 3.083 0 0 1 3.087-3.08 3.084 3.084 0 0 1 3.086 3.08Zm-1.027 0a2.057 2.057 0 0 1-2.059 2.055c-1.137 0-2.059-.92-2.059-2.055 0-1.135.922-2.055 2.06-2.055 1.136 0 2.058.92 2.058 2.055ZM9.828 23.431c.414.202.872.308 1.335.308.352 0 .695-.058 1.032-.169a3.08 3.08 0 0 0 .328-5.684.514.514 0 1 0-.453.924 2.05 2.05 0 0 1 .984 2.816 2.058 2.058 0 0 1-2.773.88.514.514 0 1 0-.453.925Z" fill="#FFB548"/></svg><svg fill="none" viewBox="0 0 18 38" id="switch-left" xmlns="http://www.w3.org/2000/svg"><path d="M16 36V2L2 18.81 16 36Z" stroke="#fff" stroke-width="3.365" stroke-linecap="round" stroke-linejoin="round"/></svg><svg fill="none" viewBox="0 0 18 38" id="switch-right" xmlns="http://www.w3.org/2000/svg"><path d="M2 2v34l14-16.81L2 2Z" stroke="#fff" stroke-width="3.365" stroke-linecap="round" stroke-linejoin="round"/></svg><svg fill="none" viewBox="0 0 21 21" id="twitch" xmlns="http://www.w3.org/2000/svg"><g fill="#fff" clip-path="url(#ia)"><path fill-rule="evenodd" clip-rule="evenodd" d="M20.518 14.011V1.184H2.74L.518 3.459v12h5.555v3.725h2.445l2.666-2.69h6.667l2.667-2.483Zm-13.111-.207H3.85c-.244 0-.444-.186-.444-.413V3.253c0-.228.2-.414.444-.414h14.222c.245 0 .445.186.445.414v7.862a.396.396 0 0 1-.128.294l-2.444 2.276a.468.468 0 0 1-.317.12h-4.083L8.1 16.007a.466.466 0 0 1-.455.026.406.406 0 0 1-.24-.368v-1.862Z"/><path d="M14.073 10.184V6.046h-1.777v4.138h1.777Zm-4.444 0V6.046H7.85v4.138H9.63Z"/></g><defs><clipPath id="ia"><path fill="#fff" transform="translate(.518 .184)" d="M0 0h20v20H0z"/></clipPath></defs></svg><svg fill="none" viewBox="0 0 21 21" id="twitter" xmlns="http://www.w3.org/2000/svg"><g clip-path="url(#ja)"><path fill-rule="evenodd" clip-rule="evenodd" d="M21.518 4.079a9.056 9.056 0 0 1-2.474.635c.89-.5 1.572-1.292 1.894-2.234a9.043 9.043 0 0 1-2.737.98 4.434 4.434 0 0 0-3.144-1.276c-2.379 0-4.31 1.809-4.31 4.039 0 .317.039.626.113.92-3.58-.168-6.756-1.776-8.88-4.22a3.83 3.83 0 0 0-.584 2.032c0 1.4.761 2.638 1.917 3.362A4.524 4.524 0 0 1 1.36 7.81v.052c0 1.957 1.485 3.589 3.456 3.96a4.692 4.692 0 0 1-1.945.07c.548 1.603 2.14 2.772 4.024 2.805a9.017 9.017 0 0 1-5.35 1.728 9.41 9.41 0 0 1-1.028-.056 12.801 12.801 0 0 0 6.604 1.815c7.925 0 12.259-6.156 12.259-11.493 0-.176-.005-.35-.013-.523a8.501 8.501 0 0 0 2.15-2.09Z" fill="#fff"/></g><defs><clipPath id="ja"><path fill="#fff" transform="translate(.518 .184)" d="M0 0h20v20H0z"/></clipPath></defs></svg><svg fill="none" viewBox="0 0 34 35" id="x" xmlns="http://www.w3.org/2000/svg"><path opacity=".3" d="M26 12.528a7.654 7.654 0 0 1-2.121.556 3.58 3.58 0 0 0 1.623-1.955 7.597 7.597 0 0 1-2.345.857 3.764 3.764 0 0 0-2.695-1.116c-2.04 0-3.694 1.582-3.694 3.534 0 .277.033.547.097.806-3.07-.148-5.79-1.554-7.612-3.693a3.398 3.398 0 0 0-.5 1.777c0 1.226.652 2.307 1.643 2.941a3.795 3.795 0 0 1-1.673-.442v.045c0 1.712 1.273 3.14 2.962 3.466a3.875 3.875 0 0 1-1.668.06c.47 1.404 1.835 2.426 3.45 2.455a7.632 7.632 0 0 1-4.586 1.513c-.295 0-.589-.017-.881-.05a10.8 10.8 0 0 0 5.66 1.588c6.793 0 10.507-5.386 10.507-10.056 0-.153 0-.306-.011-.457a7.365 7.365 0 0 0 1.843-1.83H26Z" fill="#fff"/></svg><svg fill="none" viewBox="0 0 30 31" id="xbox-icon" xmlns="http://www.w3.org/2000/svg"><path d="M9.914 3.179a22.205 22.205 0 0 1 4.552 2.444c.164.111.352.17.54.17a.962.962 0 0 0 .538-.17 22.232 22.232 0 0 1 4.553-2.45.935.935 0 0 0 .592-.879.925.925 0 0 0-.604-.867C16.921.225 13.09.225 9.931 1.427a.944.944 0 0 0-.018 1.752Z" fill="#FFB548"/><path d="M23.502 3.184a.938.938 0 0 0-1.002-.04 40.927 40.927 0 0 0-5.045 3.434.942.942 0 0 0-.064 1.412c3.316 3.159 7.91 12.846 8.965 17.3-2.286-3.868-7.383-12.97-10.717-16.081a.94.94 0 0 0-1.278 0c-3.34 3.112-8.42 12.22-10.705 16.093C4.711 20.848 9.293 11.149 12.61 7.99a.934.934 0 0 0-.058-1.412 41.379 41.379 0 0 0-5.045-3.435.939.939 0 0 0-1.002.041A14.998 14.998 0 0 0 0 15.527a14.86 14.86 0 0 0 3.656 9.775A14.868 14.868 0 0 0 15 30.529c4.389 0 8.525-1.904 11.355-5.233A14.86 14.86 0 0 0 30 15.526c0-4.922-2.432-9.535-6.498-12.342Z" fill="#FFB548"/></svg><svg fill="none" viewBox="0 0 21 21" id="youtube" xmlns="http://www.w3.org/2000/svg"><g clip-path="url(#ma)"><path d="M16.37 3.184H4.67C2.38 3.184.519 5.025.519 7.292v5.783c0 2.271 1.861 4.109 4.153 4.109h11.694c2.296 0 4.153-1.842 4.153-4.109V7.292c.004-2.267-1.857-4.108-4.149-4.108Zm-2.813 7.285-5.471 2.58a.217.217 0 0 1-.313-.197V7.528c0-.163.174-.266.317-.193l5.472 2.743a.216.216 0 0 1-.005.391Z" fill="#FF1313"/></g><defs><clipPath id="ma"><path fill="#fff" transform="translate(.518 .184)" d="M0 0h20v20H0z"/></clipPath></defs></svg></svg>