<svg width="21" height="21" fill="none" xmlns="http://www.w3.org/2000/svg"><g fill="#fff" clip-path="url(#clip0_3627_98)"><path fill-rule="evenodd" clip-rule="evenodd" d="M20.518 14.011V1.184H2.74L.518 3.459v12h5.555v3.725h2.445l2.666-2.69h6.667l2.667-2.483zm-13.111-.207H3.85c-.244 0-.444-.186-.444-.413V3.253c0-.228.2-.414.444-.414h14.222c.245 0 .445.186.445.414v7.862a.396.396 0 01-.128.294l-2.444 2.276a.468.468 0 01-.317.12h-4.083L8.1 16.007a.466.466 0 01-.455.026.406.406 0 01-.24-.368v-1.862z"/><path d="M14.073 10.184V6.046h-1.777v4.138h1.777zm-4.444 0V6.046H7.85v4.138h1.78z"/></g><defs><clipPath id="clip0_3627_98"><path fill="#fff" transform="translate(.518 .184)" d="M0 0h20v20H0z"/></clipPath></defs></svg>