<svg width="21" height="21" fill="none" xmlns="http://www.w3.org/2000/svg"><g clip-path="url(#clip0_3627_94)"><path fill-rule="evenodd" clip-rule="evenodd" d="M21.518 4.079a9.056 9.056 0 01-2.474.635c.89-.5 1.572-1.292 1.894-2.234a9.043 9.043 0 01-2.737.98 4.434 4.434 0 00-3.144-1.276c-2.379 0-4.31 1.809-4.31 4.039 0 .317.039.626.113.92-3.58-.168-6.756-1.776-8.88-4.22a3.83 3.83 0 00-.584 2.032c0 1.4.761 2.638 1.917 3.362A4.524 4.524 0 011.36 7.81v.052c0 1.957 1.485 3.589 3.456 3.96a4.692 4.692 0 01-1.945.07c.548 1.603 2.14 2.772 4.024 2.805a9.017 9.017 0 01-5.35 1.728 9.41 9.41 0 01-1.028-.056 12.801 12.801 0 006.604 1.815c7.925 0 12.259-6.156 12.259-11.493 0-.176-.005-.35-.013-.523a8.501 8.501 0 002.15-2.09z" fill="#fff"/></g><defs><clipPath id="clip0_3627_94"><path fill="#fff" transform="translate(.518 .184)" d="M0 0h20v20H0z"/></clipPath></defs></svg>