<svg width="34" height="35" fill="none" xmlns="http://www.w3.org/2000/svg"><path opacity=".3" d="M26 12.528a7.654 7.654 0 01-2.121.556 3.58 3.58 0 001.623-1.955 7.597 7.597 0 01-2.345.857 3.764 3.764 0 00-2.695-1.116c-2.04 0-3.694 1.582-3.694 3.534 0 .277.033.547.097.806-3.07-.148-5.79-1.554-7.612-3.693a3.398 3.398 0 00-.5 1.777c0 1.226.652 2.307 1.643 2.941a3.795 3.795 0 01-1.673-.442v.045c0 1.712 1.273 3.14 2.962 3.466a3.875 3.875 0 01-1.668.06c.47 1.404 1.835 2.426 3.45 2.455a7.632 7.632 0 01-4.586 1.513c-.295 0-.589-.017-.881-.05a10.8 10.8 0 005.66 1.588c6.793 0 10.507-5.386 10.507-10.056 0-.153 0-.306-.011-.457a7.365 7.365 0 001.843-1.83H26z" fill="#fff"/></svg>