<svg width="30" height="31" fill="none" xmlns="http://www.w3.org/2000/svg"><path d="M9.914 3.179a22.205 22.205 0 014.552 2.444c.164.111.352.17.54.17a.962.962 0 00.538-.17 22.232 22.232 0 014.553-2.45.935.935 0 00.592-.879.925.925 0 00-.604-.867C16.921.225 13.09.225 9.931 1.427a.944.944 0 00-.018 1.752z" fill="#FFB548"/><path d="M23.502 3.184a.938.938 0 00-1.002-.04 40.927 40.927 0 00-5.045 3.434.942.942 0 00-.064 1.412c3.316 3.159 7.91 12.846 8.965 17.3-2.286-3.868-7.383-12.97-10.717-16.081a.94.94 0 00-1.278 0c-3.34 3.112-8.42 12.22-10.705 16.093C4.711 20.848 9.293 11.149 12.61 7.99a.934.934 0 00-.058-1.412 41.379 41.379 0 00-5.045-3.435.939.939 0 00-1.002.041A14.998 14.998 0 000 15.527a14.86 14.86 0 003.656 9.775A14.868 14.868 0 0015 30.529c4.389 0 8.525-1.904 11.355-5.233A14.86 14.86 0 0030 15.526c0-4.922-2.432-9.535-6.498-12.342z" fill="#FFB548"/></svg>