<svg width="30" height="31" fill="none" xmlns="http://www.w3.org/2000/svg"><path fill-rule="evenodd" clip-rule="evenodd" d="M15 30.528c8.284 0 15-6.716 15-15 0-8.285-6.716-15-15-15-8.284 0-15 6.715-15 15 0 1.528.228 3.002.653 4.391.109.02.284.064.539.14l-.399-6.273c0-.115.194-.17.372-.221.097-.028.19-.055.243-.089.145-.091 3.124.997 3.283 1.069l3.81 1.723a4.895 4.895 0 013.317-.703l3.463-4.221c.043-3.37 2.792-6.084 6.172-6.09a6.164 6.164 0 016.076 5.575 6.168 6.168 0 01-5.564 6.715l-5.768 4.115a5.114 5.114 0 01-3.39 3.87 5.115 5.115 0 01-6.486-3.205l-2.006-.665c-.149-.047-2.879-1.183-3.618-1.6C2.617 26.13 8.295 30.528 15 30.528zm9.54-19.112a3.084 3.084 0 01-3.086 3.08 3.084 3.084 0 01-3.087-3.08 3.083 3.083 0 013.087-3.08 3.084 3.084 0 013.086 3.08zm-1.027 0a2.057 2.057 0 01-2.059 2.055 2.057 2.057 0 01-2.059-2.055c0-1.135.922-2.055 2.06-2.055 1.136 0 2.058.92 2.058 2.055zM9.828 23.431a3.05 3.05 0 001.335.308c.352 0 .695-.058 1.032-.169a3.08 3.08 0 00.328-5.684.514.514 0 10-.453.924 2.05 2.05 0 01.984 2.816 2.058 2.058 0 01-2.773.88.514.514 0 10-.453.925z" fill="#FFB548"/></svg>